<?xml version="1.0" encoding="UTF-8"?><!DOCTYPE svg PUBLIC "-//W3C//DTD SVG 1.1//EN" "http://www.w3.org/Graphics/SVG/1.1/DTD/svg11.dtd"><svg xmlns="http://www.w3.org/2000/svg"><symbol id="arrow-down" viewBox="0 0 100 100"><circle cx="50" cy="50" r="50"/><path fill="none" stroke="#FFF" stroke-width="6" d="M73.53 58.823L50 35.293l-23.53 23.53"/></symbol><symbol id="arrow-left" viewBox="0 0 20 40"><path d="M1 20l18 19L1 20 19 1"/></symbol><symbol id="arrow-right" viewBox="0 0 20 40"><path d="M19 20L1 1l18 19L1 39"/></symbol><symbol id="arrow-up" viewBox="0 0 100 100"><circle cx="50" cy="50" r="50"/><path fill="none" stroke="#FFF" stroke-width="6" d="M26.47 41.177L50 64.707l23.53-23.53"/></symbol><symbol id="close" viewBox="0 0 100 100"><circle fill="#C52127" cx="50" cy="50" r="50"/><g fill="none" stroke="#FFF" stroke-width="6"><path d="M73.53 26.47L26.47 73.53M26.47 26.47l47.06 47.06"/></g></symbol><symbol id="facebook" viewBox="0 0 100 100"><path d="M50 0C22.386 0 0 22.386 0 50s22.386 50 50 50V62.5H37.5V50H50v-9.375C50 31.995 56.996 25 65.625 25H81.25v12.5H65.625c-1.726 0-3.125 1.4-3.125 3.125V50h17.188l-3.125 12.5H62.5v35.925C84.065 92.875 100 73.298 100 50c0-27.614-22.386-50-50-50z"/></symbol><symbol id="logo" viewBox="0 0 607.629 237.15"><path fill="#888A89" d="M329.314 37.522c-1.82 0-3.643.73-5.1 1.82-1.457 1.094-2.914 2.187-4.37 4.01-1.458 1.82-2.19 3.642-2.915 5.827-.73 2.184-1.095 4.006-1.095 5.827s.363 3.644 1.457 5.1c1.457 1.822 3.277 2.915 5.828 2.915 4.008 0 7.65-1.82 10.564-5.828 1.457-1.82 2.55-3.645 3.28-5.465.728-2.188 1.09-4.008 1.09-5.83s-.362-3.644-1.456-5.1c-1.455-2.185-4.004-3.278-7.284-3.278m260.1 45.9c0 .73-.363 1.822-.73 3.28-.362 1.092-.728 2.185-.728 2.913 0 2.55 1.094 4.372 2.914 6.193 1.822 1.457 4.008 2.186 6.56 2.186 2.913 0 5.462-1.093 7.284-2.914 1.82-1.822 2.914-4.372 2.914-7.65 0-4.007-1.094-6.922-3.277-9.106-1.82-1.82-4.735-2.914-8.015-2.914-2.914 0-5.828.73-8.38 2.186s-4.733 3.645-7.284 6.56c-2.185 2.55-4.735 6.19-7.284 10.562-1.822 2.914-4.37 7.65-8.016 14.207l-24.77 45.17h-.365l-6.922-53.913c-.363-3.643-.73-6.558-1.457-8.742-.73-3.278-1.457-5.828-2.186-8.015-2.55-5.465-6.193-8.015-11.656-8.015-4.736 0-9.473 1.82-14.207 5.1h-50.27l12.386-38.25c-5.83 4.372-12.75 6.56-21.13 6.56l-10.2 32.057h-46.63l7.286-26.594c1.093-3.644 2.185-7.65 4.007-12.02 2.186-5.83 4.37-10.93 6.557-15.665 6.56-12.75 12.75-19.307 18.943-19.307 1.094 0 1.82 0 2.186.365.73.364 1.094.73 1.094 1.457 0 .364-.363 1.093-.363 1.457-.73.728-1.094 1.092-1.457 1.82-1.094 1.82-1.822 4.007-1.822 6.558 0 2.55 1.094 5.1 2.914 6.92 2.185 2.187 5.1 3.28 8.013 3.28 2.916 0 5.465-1.095 7.65-3.28 2.186-2.185 3.277-4.734 3.277-7.65 0-4.37-1.457-7.647-4.37-10.197-2.913-2.55-6.558-4.008-10.93-4.008-5.1 0-10.2 1.457-15.3 4.01-5.1 2.913-10.562 6.92-16.393 13.112-6.56 6.558-12.387 14.937-17.486 25.137-5.462 10.564-9.835 22.222-13.112 34.972h-38.615l1.822-5.1c-4.734 1.82-9.47 3.277-14.936 4.007-4.372.728-9.108 1.092-14.938 1.092h-38.978l6.92-26.593c1.095-3.645 2.188-7.65 4.01-12.022 2.186-5.828 4.37-10.928 6.556-15.664 6.56-12.75 12.75-19.307 18.943-19.307 1.093 0 1.457 0 2.187.364.73.364 1.093.73 1.093 1.458 0 .363 0 1.093-.364 1.457-.365.73-1.094 1.093-1.458 1.82-1.093 1.82-1.82 4.007-1.82 6.56 0 2.55 1.093 5.1 3.277 6.92 2.185 2.186 4.734 3.277 8.013 3.277s5.828-1.093 8.016-3.277c2.185-2.186 3.276-4.735 3.276-7.65 0-4.37-1.457-7.648-4.734-10.2-2.914-2.55-6.56-4.007-10.93-4.007-5.1 0-10.2 1.457-15.3 4.008-5.1 2.914-10.2 6.922-16.027 13.114-6.558 6.558-12.386 14.937-17.486 25.136-5.465 10.563-9.837 22.222-13.115 34.972h-93.622v3.644h93.257c-2.55 9.47-5.464 21.128-8.743 34.606-1.82 7.286-4.372 18.942-7.65 34.972-3.28 14.57-5.464 25.136-7.286 31.693-2.55 10.563-4.735 18.578-6.556 24.043-2.55 8.378-6.193 14.936-10.564 18.578-2.914 2.914-5.83 4.37-8.743 4.37-1.093 0-1.822-.363-2.55-.728-.728-.365-1.093-1.093-1.093-1.82 0-.73.364-1.094.73-1.458.728-.73 1.092-1.093 1.456-1.457 1.458-1.456 2.55-3.642 2.55-6.19 0-2.915-1.093-5.102-2.915-6.922-1.82-1.82-4.37-2.55-7.65-2.914-2.914 0-5.1 1.093-7.286 3.277-2.187 2.187-2.915 5.102-2.915 8.38 0 3.278 1.457 6.558 4.007 9.106 2.915 2.915 6.193 4.372 9.836 4.372 4.007 0 7.286-.364 10.2-1.457 3.28-1.092 6.193-2.914 9.107-5.464 2.914-2.914 6.193-6.557 9.47-11.657 3.28-5.1 6.922-11.658 10.93-19.672 4.372-8.743 9.47-24.407 16.028-46.63 1.458-5.463 4.372-16.027 8.743-32.056 4.007-14.572 7.286-25.864 9.835-34.973h47.722l-21.856 70.668c-.73 2.55-.73 5.102-.73 6.922 0 5.1 1.822 9.107 5.102 12.02 2.914 2.187 6.558 3.278 10.93 3.278 7.65 0 15.3-3.277 22.95-9.836 2.55-2.55 5.1-5.1 7.285-8.014 1.82-2.186 3.277-4.008 4.37-5.83l-2.913-1.82c-3.28 4.735-6.193 8.38-9.107 11.657-5.828 5.828-11.293 8.38-16.758 8.38-1.82 0-3.277-.73-4.37-2.188-.73-1.093-1.093-2.55-1.093-4.007s.364-3.644 1.092-6.558c.365-1.458 1.457-4.008 2.55-7.65l21.13-67.027h38.98c-2.55 9.47-5.464 21.128-8.743 34.606-1.82 7.286-4.37 18.943-7.65 34.973-3.276 14.57-5.464 25.136-7.284 31.692-2.55 10.564-4.37 18.578-6.557 24.043-2.917 8.38-6.194 14.937-10.565 18.578-2.914 2.914-5.828 4.37-8.742 4.37-1.094 0-1.822-.362-2.55-.728s-.73-1.094-.73-1.82.363-1.094.73-1.458.728-.73 1.456-1.457c1.456-1.457 2.185-3.643 2.185-6.19 0-2.916-1.092-5.103-2.914-6.924-1.82-1.82-4.37-2.55-7.284-2.915-2.914 0-5.1 1.094-7.286 3.278-2.185 2.186-3.277 5.1-3.277 8.38s1.457 6.557 4.007 9.105c2.914 2.915 6.19 4.372 10.2 4.372 4.007 0 7.284-.364 10.198-1.457 3.28-1.093 6.56-2.915 9.107-5.465 2.914-2.914 6.193-6.558 9.473-11.657 3.277-5.1 6.92-11.656 10.564-19.67 4.37-8.743 9.834-24.407 16.027-46.63 1.456-5.827 4.37-16.393 8.74-32.057 4.01-14.57 7.286-26.23 9.837-34.972h45.9L414.2 144.984c-1.095 3.644-2.19 6.922-2.552 9.472-.73 2.915-1.094 5.83-1.094 7.65 0 5.828 1.82 9.836 5.102 12.75 3.277 2.55 8.014 3.643 13.842 3.643 6.922 0 14.207-2.914 21.492-8.014 5.465-4.008 10.93-9.472 17.486-17.122 1.094-1.457 2.186-2.55 3.277-4.007l-2.55-1.82c-.728 1.092-1.82 2.55-2.913 4.006-5.102 6.923-10.93 12.388-17.486 17.122-6.19 4.372-10.93 6.56-14.57 6.56-2.188 0-4.008-.73-5.465-2.188-1.093-1.093-1.823-2.914-1.823-4.372 0-1.457.365-3.643.73-5.828.363-1.82.73-3.277 1.092-5.1l22.585-72.13h46.992c-2.914 2.915-5.463 6.192-8.016 10.2-1.82 2.55-3.642 5.465-5.462 9.106-1.094 2.188-1.822 3.28-2.186 3.645l3.277 1.093c.362-.73 1.093-1.457 1.82-2.914 3.278-5.465 5.83-9.836 8.015-12.386 3.643-5.102 6.922-7.65 10.2-7.65 1.82 0 3.278 1.457 4.37 4.007.73 1.457 1.094 4.008 1.457 7.65l11.293 83.42c-2.186 4.01-4.734 8.744-8.014 13.116-3.644 5.465-7.65 10.563-11.657 15.3-10.562 12.022-19.67 17.85-27.686 17.85-1.094 0-2.186-.362-2.914-.728s-.73-.73-.73-1.457c0-.73 0-1.093.364-1.457.365-.364.73-1.093 1.457-1.82 1.457-1.822 2.186-3.645 2.186-5.83 0-3.643-.73-6.19-2.914-8.014-1.82-1.822-4.006-2.55-6.92-2.55-2.916 0-5.83 1.092-7.65 3.277-2.186 2.188-3.277 5.102-3.277 8.38 0 4.37 1.456 7.65 4.733 10.563 2.914 2.55 6.922 3.643 12.02 3.643 6.923 0 13.48-2.186 20.036-6.557 5.827-3.644 12.02-9.473 17.85-16.758 5.1-6.193 10.563-13.844 16.394-23.314 3.643-6.192 8.742-14.936 14.936-26.23l26.957-48.45c4.736-8.742 9.473-15.663 13.115-20.764 3.277-4.007 5.1-6.192 6.557-6.192 1.09-1.452 1.454-1.088 1.454-.36z"/><path fill="#C52127" d="M164.658 82.33c0-11.293-2.186-21.856-6.557-32.058-4.006-9.836-9.834-18.578-17.485-26.23-7.65-7.648-16.393-13.478-26.23-17.483C104.186 2.185 93.623 0 82.33 0 71.036 0 60.47 2.186 50.27 6.558c-9.835 4.37-18.58 10.198-26.23 17.484-7.65 7.65-13.478 16.394-17.485 26.23C2.187 60.47 0 71.036 0 82.33s2.186 21.856 6.557 32.057c4.372 9.837 10.2 18.58 17.486 26.23 7.65 7.65 16.393 13.478 26.23 17.485 10.2 4.37 20.764 6.557 32.056 6.557 11.292 0 21.856-2.187 32.056-6.558 9.836-4.01 18.58-9.836 26.23-17.486 7.65-7.65 13.478-16.393 17.485-26.23 4.372-10.2 6.558-20.763 6.558-32.056m-81.965-10.2l.364-.363H86.7l.73.363.363 2.187h.73c.363-.364.728-.73 1.092-.73.364-.363.73-.728 1.093-.728.364 0 1.093-.365 1.82-.365s1.458-.364 2.187-.364h.73l.363.365v3.278l-.364.363h-1.457c-1.093 0-1.82 0-2.55.364s-1.458.73-1.822 1.457c-.73.364-1.093 1.093-1.093 2.188-.364 1.093-.73 2.186-.73 3.643v12.02l-.363.73H83.42l-.364-.73V72.13m-10.2-.363c1.457.363 2.55 1.093 2.914 1.82.73 1.094 1.093 2.187 1.82 3.278.366 1.457.366 2.914.366 4.736v13.478l-.365.73H73.95l-.364-.73-.364-1.822h-.364c-.364.365-1.093 1.095-1.82 1.458-.366.364-1.094.364-1.823.73s-1.82.363-3.278.363c-2.915 0-4.736-.73-6.193-2.188-1.458-1.458-2.186-3.28-2.186-5.465 0-1.457.364-2.55.73-3.643.363-1.094 1.092-1.82 2.185-2.187.73-.73 1.82-1.094 3.278-1.458 1.46-.364 2.916-.73 4.373-.73.73 0 1.093 0 1.82.364.73 0 1.094 0 1.46.366l1.456.364.363-.73v-.728c0-1.82-.364-2.914-1.093-3.278-.73-.73-1.822-.73-3.643-.73-1.82 0-2.914.364-3.643.73v.364l-.364.364v.363l-.73.364-3.277-1.458-.364-.73s0-.363.363-.728l.73-.73c.728-.728 1.82-1.093 2.913-1.456 1.093-.364 2.915-.73 4.372-.73s3.277-.717 4.37-.353m35.335-.364l.364.365v3.277l-.364.364h-4.37l-.365.364v13.113c0 .73.364 1.094.73 1.457.364.364.728.364 1.092.364h2.914l.364.364v3.28l-.364.728h-2.914c-.73 0-1.457 0-2.186-.364-.73-.363-1.458-.73-2.186-1.093-.73-.73-1.093-1.095-1.457-1.823-.363-.728-.728-1.82-.728-2.914v-17.85c0-1.457.364-2.186 1.093-2.914.73-.366 1.82-.73 3.28-.73l.363.73v2.55l.364.363h4.37m5.83-6.19c.364-.362 1.093-.728 1.457-.728.728 0 1.092.364 1.82.73.365.363.73.728.73 1.456 0 .73-.364 1.095-.73 1.458-.363.365-1.092.73-1.82.73s-1.094-.365-1.458-.73c-.364-.364-.73-1.093-.73-1.457-.363-.728.002-1.456.73-1.456m-.364 6.557h4.007l.364.365v23.313l-.365.73h-4.007l-.364-.73V71.765l.364-.364m9.836.365l.364-.364h3.278l.73.365.363 2.186h.728c.364-.728 1.093-1.092 1.457-1.456.73-.364 1.457-.73 2.186-1.093s1.822-.363 2.916-.363c1.457 0 2.914.364 4.37.73 1.458.363 2.187 1.092 2.916 2.185.73.73 1.093 1.82 1.457 3.278.363 1.093.363 2.55.363 4.008V95.08l-.364.73h-4.008l-.364-.73V81.24c0-.73 0-1.458-.364-2.188 0-.73-.364-1.457-.73-1.82-.363-.73-.728-1.094-1.456-1.457-.728-.364-1.457-.73-2.55-.73-2.186 0-4.007.73-4.736 1.822-1.093 1.457-1.82 3.278-1.82 6.558V95.08l-.366.73h-4.007l-.365-.73V71.765m-90.71 4.007c-.363-.364-1.092-.364-2.55-.364-.363 0-1.092 0-1.82.364-.73 0-1.093.363-1.457.73-.73.728-1.093 1.092-1.458 1.82s-.364 1.82-.364 3.28V95.08l-.73.73h-3.64l-.365-.73V71.765l.365-.363h3.643l.364.363.73 2.187h.363c.364-.73 1.093-1.457 2.186-2.187 1.094-.73 2.187-.73 4.008-.73 1.093 0 1.822 0 2.55.365s1.457.364 1.82.73l1.094 1.092c.364.364.73.73.73 1.457h.728c.73-1.094 1.822-1.82 2.915-2.55 1.093-.73 2.55-.73 4.372-.73 1.82 0 2.914.364 4.007.73 1.093.728 1.82 1.456 2.55 2.186.364.73.73 1.82 1.093 2.914.364 1.093.364 2.55.364 3.644v14.57l-.363.73H49.91l-.73-.73v-14.57-2.187c0-.73-.363-1.094-.363-1.457-.364-.364-.73-.73-1.457-1.094-.364-.363-1.093-.363-2.55-.363-1.82 0-2.914.363-3.643 1.457-1.093 1.093-1.458 2.914-1.458 4.735v13.48l-.73.728h-3.643l-.364-.73v-14.57-2.186c0-.73-.364-1.094-.73-1.457-.364-.73-.728-1.094-1.457-1.458m40.436 11.293v-1.457l-.364-.73h-1.093c-.364 0-.73 0-1.093-.362h-1.457c-2.186 0-4.007.363-5.1.73-1.093.728-1.457 1.82-1.457 2.913s.364 2.185 1.093 2.55c.73.728 1.823.728 3.28.728 1.82 0 3.643-.364 4.372-1.457 1.092-.365 1.82-1.458 1.82-2.915z"/></symbol><symbol id="search" viewBox="0 0 10 10"><circle fill="none" stroke="#000" stroke-miterlimit="10" cx="3.5" cy="3.5" r="3"/><path fill="none" stroke="#000" stroke-miterlimit="10" d="M9.5 9.5L5.7 5.7"/></symbol><symbol id="twitter" viewBox="0 0 100 100"><path d="M50 0C22.386 0 0 22.386 0 50s22.386 50 50 50 50-22.386 50-50S77.614 0 50 0zm24.852 37.254c.024.55.037 1.103.037 1.66 0 16.944-12.898 36.482-36.484 36.482-7.24 0-13.98-2.123-19.656-5.76 1.003.118 2.024.18 3.06.18 6.006 0 11.536-2.05 15.924-5.49-5.61-.103-10.347-3.81-11.98-8.905.784.15 1.587.23 2.414.23 1.17 0 2.303-.156 3.378-.45-5.866-1.178-10.286-6.36-10.286-12.573v-.16c1.73.96 3.707 1.536 5.81 1.603-3.442-2.3-5.706-6.225-5.706-10.673 0-2.35.632-4.553 1.736-6.446 6.324 7.76 15.772 12.863 26.43 13.398-.22-.94-.333-1.917-.333-2.922 0-7.08 5.742-12.822 12.823-12.822 3.688 0 7.02 1.557 9.36 4.05 2.92-.576 5.664-1.643 8.142-3.112-.957 2.994-2.99 5.507-5.638 7.094 2.594-.31 5.065-1 7.364-2.02-1.717 2.572-3.89 4.83-6.396 6.638z"/></symbol></svg>