<?xml version="1.0" encoding="UTF-8"?><!DOCTYPE svg PUBLIC "-//W3C//DTD SVG 1.1//EN" "http://www.w3.org/Graphics/SVG/1.1/DTD/svg11.dtd"><svg xmlns="http://www.w3.org/2000/svg"><symbol id="bigplay" viewBox="0 0 100 100"><path fill-rule="evenodd" clip-rule="evenodd" d="M49.772 99.88C24.376 100.096-.158 80.687 0 49.93.152 20.362 22.283.08 49.99.11 78.183.143 99.965 20.93 100 49.926c.04 31.815-25.484 50.46-50.228 49.955zm-13.25-48.855c0 5.326-.05 10.653.015 15.98.067 5.393 1.928 6.498 6.657 3.78C52.42 65.48 61.6 60.092 70.734 54.63c4.43-2.65 4.376-4.71-.172-7.42-9.145-5.447-18.336-10.814-27.546-16.15-4.642-2.688-6.49-1.828-6.482 3.988.007 5.327-.013 10.654-.01 15.98z"/></symbol><symbol id="icon-bubble" viewBox="0 0 18 18"><path d="M9.016 3C11.764 3 14 5.243 14 8s-2.236 5-4.97 5l-.06-.004-.165-.01-.336-.014-3.666 1.098.63-2.483-.518-.747c-.58-.84-.886-1.822-.886-2.842 0-2.757 2.236-5 4.984-5zm0-2C5.16 1 2.032 4.134 2.032 8c0 1.48.46 2.848 1.24 3.978L2.003 17l6.72-2.015c.1.004.195.015.294.015C12.873 15 16 11.866 16 8s-3.127-7-6.984-7z"/></symbol><symbol id="icon-collapse" viewBox="0 0 18 18"><title>collapse</title><path d="M14.425 2.165l-2.57 2.57.018-1.847c-.003-.552-.45-1-1.002-1.002-.55-.003-.994.442-.99.992l-.024 4.22c0 .264.106.518.295.707.01.007.017.016.026.023.008.007.015.017.023.025.187.188.442.294.706.295l4.22-.023c.55.002.994-.442.992-.992-.003-.55-.45-1-1.002-1.002l-1.847.017 2.568-2.57c.387-.386.387-1.012 0-1.4l-.012-.012c-.387-.386-1.014-.386-1.4 0zM6.154 13.266l-.017 1.846c.003.552.45 1 1.002 1.002.55.003.994-.442.99-.992l.025-4.22c-.002-.264-.107-.518-.296-.707-.01-.007-.017-.016-.026-.023-.008-.007-.015-.017-.023-.025-.187-.188-.442-.294-.706-.295l-4.22.023c-.55-.002-.994.442-.99.992 0 .55.45 1 1 1.002l1.847-.017-2.568 2.57c-.387.386-.387 1.012 0 1.4.4.398 1.026.398 1.413.012l2.57-2.57z"/></symbol><symbol id="icon-expand" viewBox="0 0 18 18"><title>expand</title><path d="M6.425 10.165l-2.57 2.57.018-1.847c-.003-.552-.45-1-1.002-1.002-.55-.003-.994.442-.99.992l-.024 4.22c0 .264.106.518.295.707.01.007.017.016.026.023.008.007.015.017.023.025.187.188.442.294.706.295l4.22-.023c.55.002.994-.442.992-.992-.003-.55-.45-1-1.002-1.002l-1.847.017 2.568-2.57c.387-.386.387-1.012 0-1.4l-.012-.012c-.387-.386-1.014-.386-1.4 0zM14.154 5.266l-.017 1.846c.003.552.45 1 1.002 1.002.55.003.994-.442.99-.992l.025-4.22c-.002-.264-.107-.518-.296-.707-.01-.007-.017-.016-.026-.023-.008-.007-.015-.017-.023-.025-.187-.188-.442-.294-.706-.295l-4.22.023c-.55-.002-.994.442-.99.992 0 .55.45 1 1 1.002l1.847-.017-2.568 2.57c-.387.386-.387 1.012 0 1.4.4.398 1.026.398 1.413.012l2.57-2.57z"/></symbol><symbol id="icon-fast-forward" viewBox="0 0 18 18"><path d="M17.57 8.246L7 2c-.552 0-1 .448-1 1v1.954L1 2c-.552 0-1 .448-1 1v12c0 .552.448 1 1 1l5-2.955V15c0 .552.448 1 1 1l10.57-6.246c.266-.158.43-.444.43-.754s-.164-.597-.43-.754zM6 10.722l-4 2.364V4.914l4 2.364v3.444zm2 2.364V4.914L14.915 9 8 13.086z"/></symbol><symbol id="icon-muted" viewBox="0 0 18 18"><title>muted</title><path d="M9.214 2c-.11 0-.225.032-.334.1L4.832 4.91C4.75 4.97 4.65 5 4.55 5H.995C.446 5 0 5.448 0 6v6c0 .552.446 1 .996 1H4.55c.1 0 .2.03.282.09L8.88 15.9c.11.068.223.1.334.1.392 0 .747-.4.747-.95V2.95c0-.55-.355-.95-.746-.95zM14.934 8.8c-.086-1.75-1.514-2.992-2.507-3.65-.47-.312-1.094-.122-1.325.408l-.037.086c-.19.43-.045.94.335 1.194.705.473 1.586 1.247 1.623 2.065.033.676-.553 1.468-1.662 2.27-.397.288-.528.84-.284 1.275l.042.075c.266.475.866.623 1.3.312 1.74-1.25 2.586-2.606 2.516-4.036z"/><path d="M13.957 9.2c.086 1.747 1.514 2.99 2.507 3.647.47.312 1.095.123 1.325-.407l.037-.086c.188-.43.045-.938-.337-1.194-.705-.473-1.586-1.247-1.623-2.065-.032-.676.553-1.468 1.662-2.27.397-.288.528-.84.284-1.275l-.04-.075c-.267-.475-.868-.623-1.3-.312-1.742 1.25-2.587 2.607-2.517 4.036z"/></symbol><symbol id="icon-pause" viewBox="0 0 18 18"><title>pause</title><path d="M2 4v10c0 2 2 2 2 2h2s2 0 2-2V4c0-2-2-2-2-2H4S2 2 2 4zM10 4v10c0 2 2 2 2 2h2s2 0 2-2V4c0-2-2-2-2-2h-2s-2 0-2 2z"/></symbol><symbol id="icon-play" viewBox="0 0 18 18"><path d="M4 2c-.552 0-1 .448-1 1v12c0 .552.448 1 1 1l10.568-6.246C14.836 9.596 15 9.31 15 9s-.164-.597-.432-.754L4 2z"/></symbol><symbol id="icon-refresh" viewBox="0 0 18 18"><path d="M8.013 14.006H7.19c-2.37-.388-4.186-2.453-4.186-4.934 0-.83.213-1.61.574-2.3l.613.85c.447.62 1.41.447 1.615-.288l1.162-4.18C7.13 2.575 6.692 2 6.09 2.002l-4.174.007c-.74 0-1.17.84-.736 1.443l1.128 1.564C1.49 6.16 1.006 7.558 1.006 9.074c0 3.498 2.566 6.398 5.918 6.916.09.014.18.01.267 0V16h.823c.545 0 .987-.44.987-.986v-.02c0-.545-.442-.987-.987-.987zM16.82 14.55l-1.13-1.563c.82-1.145 1.303-2.544 1.303-4.06 0-3.498-2.566-6.398-5.918-6.917-.09-.014-.18-.01-.267 0V2h-.822c-.545 0-.986.442-.986.987v.02c0 .546.442.988.986.988h.822c2.372.388 4.187 2.453 4.187 4.934 0 .83-.213 1.61-.573 2.3l-.614-.85c-.446-.62-1.41-.447-1.613.288l-1.163 4.18c-.16.58.275 1.154.878 1.153l4.174-.006c.742 0 1.17-.842.736-1.443z"/></symbol><symbol id="icon-rewind" viewBox="0 0 18 21"><title>rewind</title><path d="M.43 10.754L11 17c.552 0 1-.448 1-1v-1.954L17 17c.552 0 1-.448 1-1V4c0-.552-.448-1-1-1l-5 2.955V4c0-.552-.448-1-1-1L.43 9.246C.165 9.404 0 9.69 0 10s.164.597.43.754zM12 8.278l4-2.364v8.172l-4-2.364V8.278zm-2-2.364v8.172L3.085 10 10 5.914z"/></symbol><symbol id="icon-sound" viewBox="0 0 18 18"><path d="M10.214 2c-.11 0-.226.032-.334.1L5.832 4.91C5.75 4.97 5.65 5 5.55 5H1.995C1.446 5 1 5.448 1 6v6c0 .552.446 1 .996 1H5.55c.1 0 .2.03.282.09L9.88 15.9c.108.068.224.1.334.1.392 0 .747-.4.747-.95V2.95c0-.55-.355-.95-.746-.95zM16.934 8.8c-.086-1.75-1.514-2.992-2.507-3.65-.47-.312-1.094-.122-1.325.408l-.037.086c-.19.43-.045.94.335 1.194.705.473 1.586 1.247 1.623 2.065.033.676-.553 1.468-1.662 2.27-.397.288-.528.84-.284 1.275l.042.075c.266.475.866.623 1.3.312 1.74-1.25 2.586-2.606 2.516-4.036z"/></symbol></svg>