<?xml version="1.0" encoding="UTF-8"?><!DOCTYPE svg PUBLIC "-//W3C//DTD SVG 1.1//EN" "http://www.w3.org/Graphics/SVG/1.1/DTD/svg11.dtd"><svg xmlns="http://www.w3.org/2000/svg"><symbol id="arrow-down" viewBox="0 0 100 100"><circle cx="50" cy="50" r="50"/><path fill="none" stroke="#FFF" stroke-width="6" d="M73.53 58.823L50 35.293l-23.53 23.53"/></symbol><symbol id="arrow-left" viewBox="0 0 20 40"><path d="M1 20l18 19L1 20 19 1"/></symbol><symbol id="arrow-right" viewBox="0 0 20 40"><path d="M19 20L1 1l18 19L1 39"/></symbol><symbol id="arrow-up" viewBox="0 0 100 100"><circle cx="50" cy="50" r="50"/><path fill="none" stroke="#FFF" stroke-width="6" d="M26.47 41.177L50 64.707l23.53-23.53"/></symbol><symbol id="close" viewBox="0 0 100 100"><circle fill="#C52127" cx="50" cy="50" r="50"/><g fill="none" stroke="#FFF" stroke-width="6"><path d="M73.53 26.47L26.47 73.53M26.47 26.47l47.06 47.06"/></g></symbol><symbol id="facebook" viewBox="0 0 100 100"><path d="M50 0C22.386 0 0 22.386 0 50s22.386 50 50 50V62.5H37.5V50H50v-9.375C50 31.995 56.996 25 65.625 25H81.25v12.5H65.625c-1.726 0-3.125 1.4-3.125 3.125V50h17.188l-3.125 12.5H62.5v35.925C84.065 92.875 100 73.298 100 50c0-27.614-22.386-50-50-50z"/></symbol><symbol id="logo" viewBox="0 0 607.629 237.15"><circle cx="100" cy="110" r="85" stroke="#F7931D" stroke-width="2" fill="#E1E1E1" /><path fill="#F7931D" d="m 531.94758,192.19694 q 0.10999,0 0.21314,0.0528 0.10351,0.0528 0.32308,0.0528 0.10998,0.43303 0,0.53654 -0.53622,0.10987 -1.07237,0.64637 l 0.10999,0.21335 0.21313,0.21335 q 0.43304,0 1.07237,-0.21335 0.10998,0.10987 0.10998,1.82854 -0.21313,0.21336 -0.48119,0.26827 -0.26806,0.0528 -0.48119,0.26827 0,0.21335 0.0549,0.21335 0.0549,0 0.0549,0.10987 0,0.10987 0.10999,0.10987 l 0.43302,-0.10987 q 0.53623,1.60855 0.53623,1.7185 0,0.32319 -0.10998,0.43303 l -0.32309,0.10987 -0.43302,0 -0.32309,-0.43304 -0.32308,0 -0.10999,0.21335 q 0,0.32319 0.74925,0.74882 l 0.74925,0 0,1.82856 1.07237,25.13192 q 0,0.64638 0.26805,2.15152 0.26806,1.50547 0.26806,2.36477 0,0.21336 -0.0549,0.59147 -0.0549,0.37811 -0.0549,0.59145 -0.64616,1.29233 -1.60856,1.29233 l -1.93163,0 -1.93164,0.53654 q -0.85931,0.21334 -2.15161,0 -1.60855,-0.21335 -2.15161,-1.18239 l -2.25472,-1.18238 q -0.64617,-0.32319 -1.01741,-0.74883 -0.37125,-0.42564 -0.59114,-0.85972 0,-0.74883 0.53622,-1.60855 l 1.07237,-1.50537 q 1.50544,-2.15162 2.04162,-4.40634 0.53622,-2.25472 0.32309,-4.61949 l 0.64616,-3.43699 0.8593,-2.15163 0.43304,0.10987 0.53622,2.5778 q 0.64616,2.79093 1.39545,3.11402 l 0.32308,0 0.10999,-0.21335 q -0.10999,-0.74882 -0.32309,-1.50546 -0.21313,-0.75623 -0.43303,-1.60855 -0.43303,0 -0.53622,-0.10988 l -0.21313,-0.21335 0,-0.21335 q 0.21313,-0.10987 0.26805,-0.15842 0.0549,-0.0529 0.26806,-0.15843 -0.21314,-1.50546 -0.21314,-3.01093 0,-1.50536 -0.10999,-3.01083 l 0.32309,-0.10987 0.21313,0.10987 0.10999,0.10987 1.39545,7.30723 q 0.43303,0.53654 0.64616,1.29234 l -0.53621,0.32318 -0.10999,0.3232 0.21313,0.10987 q 0.32309,0.10988 0.85931,0.10988 0.43303,0 0.53622,-0.10988 0.10999,-0.43303 0,-3.65023 0,-1.39542 -0.0549,-2.36467 -0.0549,-0.96957 -0.1581,-1.50547 l -0.21314,-0.21334 q -0.43303,0.10987 -0.43303,0.64638 0,0.64638 0.10998,0.96956 0.21313,0.64638 0,0.85973 l -0.21314,0 q -0.32307,-0.21335 -0.53622,-1.18239 -0.10998,-0.64638 0,-2.04158 l 0.10999,-1.50546 q 0,-0.3232 0.8593,-0.3232 0.21313,-0.21334 0.21313,-2.90087 l -0.21313,-0.10988 -1.39546,0 -0.32309,-0.43302 q -0.10998,-0.3232 0.10999,-0.53654 l 1.39546,0.10987 0.32308,-0.10987 0,-0.21334 -0.74925,-0.64638 q 0.32308,-0.10988 0.74925,-0.74883 0.10999,-0.53653 0.0549,-2.30974 -0.0549,-1.77352 -0.1581,-4.56435 -0.32309,-6.22804 -0.43304,-6.55112 l -0.21313,-0.21334 -0.43302,0 0,0.10987 q -0.10999,0.10987 0.21313,1.7185 0.32308,1.50547 0.32308,1.93163 0,0.85973 -0.32308,0.96957 l -0.21313,0.10987 -0.32309,-0.10987 q -0.53622,-0.85973 -0.53622,-3.87013 -0.10998,-3.54705 0.10999,-3.76019 l 0.32308,-0.10987 0.10999,0.10987 q 0.10998,0.32319 0.64616,0.85973 l 0.21314,-0.10987 q 0.32308,-1.18229 1.29234,-1.18229 0.53621,0 0.53621,0.64638 l 0.32309,6.12485 q 0,0.32319 -0.43303,0.74882 l -0.43303,0.43304 z m 0.10999,32.3291 0,-0.53654 q 0,-0.43302 -0.10999,-0.64638 l -0.21314,-0.21334 -0.43302,0 -0.10999,0.21334 q 0,0.21336 0.0549,0.37811 0.0549,0.16477 0.0549,0.37811 0,0.21336 0.10999,0.3232 l 0.10998,0.21334 0.32309,0 z m -0.43303,-3.86326 q 0.43303,0 0.43303,-0.32319 -0.21313,-0.21335 -0.43303,-0.37811 -0.22,-0.16476 -0.53621,-0.37811 l -0.32309,0.10987 -0.10998,0.32319 0.43303,0.43304 q 0,0 0.53622,0.21334 z m -0.96238,-1.39542 q 1.50545,0 1.07237,-1.39542 -0.10999,-0.10987 -0.43303,0 -0.8593,0.53654 -0.8593,1.29234 z m 0.10352,-5.05251 q 0.21313,0.43302 0.10998,0.74882 0,0.21335 -0.10998,0.21335 -0.10999,0 -0.10999,-0.21335 l -0.21313,-0.64638 0.21313,-0.21334 z m -3.3271,-2.14477 -0.32308,0.10988 -0.21313,-0.21335 q 0,-0.21335 -0.15811,-0.53654 -0.15812,-0.32318 -0.15812,-0.53654 l 0.21315,-0.10987 0.32308,-0.10988 q 0.53622,0.85973 0.53622,1.29234 z m -1.60855,-1.93163 q 0,-0.21336 -0.0549,-0.3232 -0.0549,-0.10987 -0.0549,-0.32318 0,-0.10987 0.0549,-0.26827 0.0549,-0.15843 0.0549,-0.37811 l 0.53622,-0.10987 0.32309,0.10987 0.10998,0.10987 q 0.10999,0.21336 -0.43304,1.07245 z m 0.42617,-2.5778 q 0.10998,0.21334 0,0.64638 l -0.32308,0 q -0.64617,0 -0.74925,-0.3232 l 0,-0.10987 q 0.32308,-0.32319 0.64616,-0.32319 0.21314,0 0.26806,0.0528 0.0549,0.0528 0.15811,0.0528 z m 2.04162,-0.43304 q -0.64616,-0.10987 -0.74924,-0.85972 -0.10352,-0.74883 0.21313,-1.07232 l 0.53622,0 q 0,0.21334 0.10998,0.43302 0.10999,0.21968 0.10999,0.64638 0.10998,0.74883 0,0.85973 l -0.21313,0 z m 1.71854,-1.3954 q -0.10998,-0.3232 -0.10998,-0.96958 l 0,-0.43302 q 0.21314,-0.21335 0.53623,0 0.21313,0.85972 0.21313,0.74882 0,0.43304 -0.21313,0.64638 l -0.43304,0 z m -2.04162,-2.68786 -0.32308,0.10988 -0.21314,0 q -0.32308,-0.10988 -0.32308,-0.74883 0,-0.32319 0.32308,-0.53654 l 0.21314,0.10988 0.53622,0.85972 z m 1.93164,-2.04158 q -0.21315,-0.21335 -0.10999,-1.50547 0.10999,-1.18238 -0.43303,-1.71849 0.10998,-0.21335 0.21314,-0.64638 0.10352,-0.43304 0.32308,-0.96956 l 0.21314,-0.10988 0.32308,0.21335 0,4.72942 -0.53622,0 z m 0.10998,-5.36874 -0.21313,-0.10987 q -0.10998,-0.10987 -0.10998,-0.74882 0,-0.43303 0.21314,-0.64638 l 0.32307,0.64638 q 0.21315,0.64638 0,0.85972 l -0.21313,0 z m -0.53621,-2.46785 0.21313,-0.21334 q 0.32308,-0.10987 0.64617,0.21334 l 0.10998,0.21335 -0.53621,0.53654 -0.32309,0.10987 0,-0.10987 -0.10998,-0.53654 0,-0.21335 z m 1.07237,-6.551 0.10999,-0.32319 -0.10999,-0.21335 -0.43303,-0.10988 -0.21313,0.10988 -0.10999,0.32319 0.10999,0.21335 0.43302,0.10987 z M 518.19967,110.1402 q 0.96924,-1.18238 1.98662,-2.19979 l 2.09661,-2.09661 q 4.18636,-3.97321 7.08726,-5.69181 0.32307,-0.32319 2.1516,-0.64638 1.93165,-0.32318 2.15162,-0.21334 l 8.59269,3.65023 q 2.15162,0.96957 2.15162,2.90089 0,1.07232 -0.8593,1.71849 l -6.66105,4.83252 q -0.21315,0.21334 -0.74925,1.23741 -0.53622,1.02449 -1.39545,3.16893 l -2.04163,3.11402 q -1.60855,2.36467 -1.39545,10.20125 0.21313,13.42521 0.26806,23.52337 0.0549,10.09817 0.1581,17.18539 0.10999,3.4371 0.10999,5.26554 l 0,2.04169 q -0.21313,0.10987 -0.48119,0.10987 -0.26806,0 -0.59114,0.21335 -0.21314,0.21334 0.21313,0.53653 l 0.8593,0 q 0.10998,0 0.10998,2.25471 0,2.15164 -0.10998,2.25472 -0.74925,0 -3.01087,0.64638 l -0.32309,-0.10987 -0.10998,-0.10988 0.64617,-0.32319 0,-0.21335 q -0.64617,-0.43303 -0.64617,-0.85972 0.64617,-0.96957 0.64617,-1.07233 -0.32309,-0.10988 -0.74925,-0.53653 0.10998,0.10987 0.53622,-1.18239 -0.10999,-0.53654 0.21313,-2.36477 l 0.21313,-0.10987 0.21314,0 q -0.21314,2.68785 0.10999,4.50955 l 0.64617,0 -0.32309,-10.63439 -0.10998,0 q -0.10999,0 -0.21315,-0.10988 l -0.10998,0.10988 q 0,4.72943 -0.10999,4.83252 l -0.32308,0.10987 -0.21313,-0.10987 q -0.32309,0 -0.10999,-1.29234 0.10999,-1.39541 -0.53621,-1.71849 l 0.10998,-0.3232 q 0.21313,-0.10987 0.21313,-0.15842 0,-0.0528 0.10999,-0.15842 0,-0.53654 0.64616,-1.50547 l 0.64616,-0.85973 -0.32308,0 q -0.21313,0.21335 -0.21313,0.43304 l -0.32309,0.10987 -0.21313,-0.10987 q -0.53622,-0.53654 -0.53622,-2.36467 -0.21314,-1.60855 0.21314,-2.25472 l 0.8593,-0.21334 q 0.21313,-0.21335 0.21313,-0.64638 l -0.10999,-0.10988 -0.21314,0.10988 -0.43302,0.32319 -0.32309,-0.10987 q -0.53621,-0.10987 -0.64617,-1.29244 -0.32308,-1.07233 1.29235,-1.29233 0.43303,-0.10988 0.43303,-0.43304 0,-0.10987 -0.21314,-0.32318 l -0.21313,0 -0.32308,0.32318 -0.32309,0 q -0.21313,-0.21334 -0.21313,-0.53653 0,-0.32318 0.10999,-0.43303 0.21313,-0.10988 0.48119,-0.15842 0.26805,-0.0528 0.48119,-0.26827 l -0.74925,-0.74883 q 0.64617,-0.32319 0.74925,-0.74882 l -1.39544,0 0,-0.10988 q 0.21313,-0.85972 0.37811,-1.29233 0.16496,-0.43304 0.1581,-0.74883 0.74925,-0.43303 0.74925,-0.21334 0,-0.10987 -0.21313,-0.10987 l -0.8593,-0.10988 -0.21314,-0.21334 0,-3.76019 q 0,-1.3954 -0.0549,-2.2547 -0.0549,-0.85973 -0.48119,-1.07234 l 0,-0.21335 q 0.43302,-0.43303 0.43302,-0.96957 0,-0.53653 -0.32308,-1.60855 -0.32309,-1.07233 -0.32309,-1.29232 0,-0.21969 0.15812,-0.64638 0.15811,-0.42564 0.15811,-0.64638 0,-0.21968 -0.21314,-0.91464 -0.21314,-0.69391 -0.21314,-1.0171 l 0,-15.25376 q 0,-0.53653 -0.32308,-0.53653 -0.43303,0 -1.71854,0.96957 l -4.18636,3.01082 q -2.3647,1.7186 -5.9049,1.7186 -2.68779,0 -5.04562,-0.74882 l -0.85931,-1.50547 q -1.39546,-2.36466 -1.39546,-4.18635 0,-1.93163 1.29235,-3.43709 l 1.29234,-1.60855 q 0,-0.53654 0.53622,-1.82855 0.74925,-1.18229 1.60855,-2.52278 0.8593,-1.34049 1.93164,-2.84586 0.96924,-0.96956 3.87015,-3.114 z m 11.06739,58.53337 q 0.21313,0 0.43302,0.0528 0.22001,0.0528 0.43304,-0.0528 l 0.21313,-0.3232 -0.21313,-0.21334 -0.53623,-0.10987 -0.21313,0 -0.21313,0.32318 z m -0.22001,-16.42918 0.32309,-0.21334 q 0.10998,-0.53654 0.0549,-0.80481 -0.0549,-0.26827 -0.0549,-0.48162 l -0.32309,-0.10987 -0.10998,0.10987 q -0.21313,1.07234 -0.21313,0.96957 0,0.43303 0.10998,0.43303 z m -12.24287,-23.31024 q 1.60855,0 1.71855,-0.10987 l 0.10998,-0.43304 -0.10998,-0.32318 q -0.10999,-0.10988 -1.71855,-0.10988 -1.50544,0 -1.56042,0.10988 -0.0549,0.10987 -0.0549,0.32318 0,0.21336 0.0549,0.37811 0.0549,0.16477 1.56042,0.15843 z M 527.00543,116.155 q -0.85931,0.21335 -5.58869,4.40635 -4.83254,4.40634 -4.83254,4.94257 l 0,1.07233 q 1.07238,0.64637 1.82853,0.64637 -0.21313,0 0.43304,-0.10987 0.64615,-0.10988 2.3647,-0.32319 l 0.21313,0 -0.10998,1.07244 q 0,0.32318 0.64615,-0.21335 l 4.40634,-3.11402 q 1.07237,-0.74882 1.07237,-1.29233 l 0,-6.55111 q 0,-0.43304 -0.43303,-0.53654 z m -12.88904,11.70672 0.21313,-0.21336 q 0.10998,-0.10987 0.10998,-0.53653 0,-0.32318 -0.32308,-1.18228 l -0.32309,-0.10987 -0.32308,0.21334 q -0.21313,0.85972 0.32308,1.60855 z m -5.4721,-1.50547 q 0.32309,-0.10987 0.32309,-0.85973 l 0,-0.21334 -0.32309,-0.10987 q -0.32307,0.10987 -0.53622,0.64638 l 0,0.21334 0.21315,0.3232 0.32307,0 z m 25.02193,-11.38364 0.32308,-0.32318 0.10999,-0.32319 -0.10999,-0.32319 q -0.74925,-0.21335 -0.8593,-0.10988 l -0.10998,0.21335 q -0.10999,0.64638 0.10998,0.85972 l 0.53622,0 z m -41.56802,18.36778 q -0.53621,-2.36465 -0.53621,-2.25471 0.10998,-0.96957 0.21313,-2.04158 0.10351,-1.07244 0.32308,-2.25483 -0.32308,-4.18634 -4.29635,-4.18634 -2.25472,0 -5.90489,1.50546 -0.64617,0.43304 -1.34047,0.91465 -0.69432,0.48162 -1.45044,1.0171 -0.64617,1.18238 -3.01088,3.22395 -2.15162,1.82856 -2.46783,1.71861 -0.8593,-0.21335 -2.1516,-0.96957 -0.43304,-0.53653 -0.43304,-1.93173 l 0,-1.0171 q 0,0 -0.10999,-1.01709 -0.10998,-0.85973 -0.37809,-2.09671 -0.26806,-1.2373 -0.59115,-3.05899 -1.29234,-3.76018 -3.54707,-5.26555 0,-0.43302 0.74925,-1.50547 0.43303,-0.43302 2.9009,-0.74882 0.32309,-0.43303 0.64617,-0.8048 0.32309,-0.37071 0.74925,-0.70131 1.29234,-0.32318 1.93164,-0.32318 2.57781,0 2.57781,3.97322 0,1.60855 -0.43303,3.76017 l -0.74925,3.76019 0,2.15164 q 0.53622,-0.74883 1.50544,-1.77353 0.96925,-1.02449 2.25473,-2.52288 0.53621,-0.53654 1.50543,-1.39541 0.96924,-0.85973 2.46782,-2.04159 1.50544,-0.96956 3.3821,-1.7186 1.87663,-0.74882 4.35132,-1.18238 1.93165,-0.32319 4.72942,1.50546 2.68781,1.93164 3.32709,3.97332 0.53622,1.82846 0.32309,2.46775 l -0.43304,2.25472 -0.64615,1.18238 q -1.07237,3.22396 -1.07237,2.79094 0.10999,0.74882 0.74925,0.96956 0.32308,0.21335 2.15161,-0.96956 0.53622,-0.53654 1.07237,-1.18239 0.53622,-0.64638 1.29234,-1.29233 l 1.71853,-2.15164 q -2.46782,0.96958 -4.18635,1.93163 0.21313,0 0.21313,-0.10987 1.07237,-0.64637 2.46782,-1.60855 1.39546,-0.96217 3.11399,-2.36466 0.43304,-0.32319 0.96926,0.53653 0.10998,0.53654 0.21313,0.53654 0,0.10988 0.10998,0.21335 l -1.60856,3.54705 q -0.8593,1.93163 -2.19973,3.38206 -1.34045,1.45045 -2.95589,2.63283 -2.46782,1.82855 -5.04563,1.82855 -0.74925,0 -2.46782,-1.29233 z m -47.47292,-12.24968 q 0,-0.21336 -0.91423,-1.87672 -0.91421,-1.66358 -0.91421,-4.4544 0,-3.76019 3.22398,-7.30723 3.43708,-3.76019 6.87416,-3.76019 0.74925,0 2.1516,0.74883 1.39545,0.64638 1.71853,0.64638 2.15162,0 3.43708,-1.66358 1.28547,-1.66358 1.29235,-3.81511 0,-4.94256 -3.43708,-7.52036 -2.90089,-2.254714 -7.73342,-2.254714 -2.7909,0 -5.2656,1.505468 -1.71855,1.072336 -2.15162,1.828446 -0.96925,1.7186 -1.82853,2.19979 -0.8593,0.48161 -2.68778,0.26827 l -1.50545,-0.85973 q -0.32309,-0.64637 -0.32309,-1.07233 0,-0.64637 0.64617,-1.66357 0.64617,-1.0171 0.64617,-1.5605 0.8593,-0.859724 1.71854,-1.450431 0.8593,-0.591466 2.04162,-0.80375 l 6.55108,-1.072333 q 0.8593,-0.213347 2.52281,0 1.66354,0.213344 4.13824,0.748825 3.76016,0.859724 6.98414,4.08327 0.64617,0.646369 1.82852,4.509419 0.96925,3.43711 -0.48119,6.55112 -1.45044,3.11392 -4.67442,4.72933 -0.64617,0.43304 -3.76016,1.60855 0,-1.93152 1.60856,2.36477 1.82851,4.83252 1.71852,5.80176 -0.21313,2.5778 -0.21313,3.91829 0,1.34049 0.10998,1.56039 0.64617,0.53653 1.93163,0.32319 0.43303,0 1.23735,-0.26827 0.80427,-0.26826 2.30972,-0.7013 0.53622,-0.10987 1.07236,-0.64638 l 0.53622,-0.32318 q -0.21313,0.21334 0.43304,0.53653 0.64615,0.32319 0.43302,0.53654 -0.43302,0.21334 -0.91422,0.59145 -0.4812,0.37811 -1.23735,0.91465 -0.21313,0.21335 -1.07238,0.53653 -0.8593,0.3232 -2.3647,0.96957 -1.29233,0.32319 -3.54706,0.64638 -0.8593,0.21334 -1.18235,1.29233 l -2.36472,7.08734 q -0.64615,1.93163 -2.52281,3.11391 -1.87665,1.18238 -4.02826,1.18238 -1.39545,0 -2.7909,-0.64638 -0.64617,-0.32318 -1.60856,-1.60855 -0.43303,-0.21334 -1.07236,-2.46785 -0.74925,-2.90087 -0.10998,-5.58863 l -0.10999,-0.10987 q 0.21315,-0.64638 0.7012,-1.66357 0.48806,-1.0171 1.34047,-2.52278 1.60854,-2.5778 1.60854,-3.11402 z m 3.32709,3.87012 q -1.93163,3.22397 -1.93163,6.01491 0,0.96956 0.53622,2.36465 0,0.21335 0.64616,0.96957 1.39545,0.43303 3.76016,-3.11402 2.04163,-3.32704 2.36471,-4.83251 l -0.21314,-0.21335 q -0.43303,0 -1.07237,-0.0528 -0.63931,-0.0528 -1.50543,-0.15842 -0.85931,-0.64638 -2.25473,-1.07234 z m -5.79491,2.14467 q 0.53622,-0.21335 0.8593,-1.60855 l -0.10998,-0.3232 -0.32309,0.21336 q -0.96924,0.96956 -0.74924,1.7186 l 0.32308,0 z m 8.05651,-9.98811 q 0.64616,-1.82856 2.5778,-1.82856 0.74925,0 1.07237,0.10988 l 0.32308,-0.21335 0,-0.32318 q -1.50543,-3.54705 -4.94251,-3.54705 -3.114,0 -3.114,2.90088 0,2.36477 0.74925,3.01093 0.10999,0.32319 1.29235,0.32319 1.29232,0 2.04162,-0.43303 z m 3.2171,-10.41439 q -0.32308,0.85973 -0.32308,1.29244 0,0.53654 0.21313,0.74882 0.53622,0.21335 1.12736,-0.26827 0.59114,-0.48161 0.59114,-1.01708 0,-0.85973 -1.39546,-0.96958 z m -18.04465,20.29942 q 0.43302,-0.64638 1.56042,-1.45045 1.12736,-0.80375 1.34046,-0.80375 0.10999,0.10988 0.64617,0.10988 0.53622,0 0.53622,0.21334 0,0.10988 -0.10999,0.21336 l -4.50944,4.18634 q -0.21314,0.21335 -1.01741,0.74883 -0.80428,0.53653 -2.30971,1.39552 -1.82853,0.96956 -5.04564,0.85972 -1.60855,0 -3.11398,-1.07244 -1.29235,-0.96956 -1.82854,-1.18227 -1.29234,0 -2.57781,4.72932 -0.74925,3.01094 -1.29233,3.32715 -0.96926,1.18239 -3.87015,1.29234 -3.01088,0.21334 -5.04563,-2.46785 -2.79092,-3.4371 -4.18636,-7.52026 -0.21314,-0.21336 -0.53622,-1.01709 -0.32308,-0.80481 -0.53623,-2.30975 l -0.8593,-6.0149 q -0.21313,-0.74883 -0.26804,-1.39542 -0.0549,-0.64637 -0.26806,-1.50546 -0.10999,-0.21335 -0.21315,-0.48161 -0.10351,-0.26827 -0.53621,-0.91465 -0.21313,-0.43302 -0.53622,-0.70129 -0.32308,-0.26827 -0.74925,-0.59146 l -0.21313,-0.32319 0.21313,-0.43303 q 0.32309,-0.32319 1.39546,-0.37811 1.07236,-0.0528 1.39545,-0.15843 0.74925,-2.04168 2.15161,-2.04168 0.21313,0 0.8593,0.26827 0.64617,0.26827 1.82853,0.70129 l 3.76016,1.18238 0.32309,0.53654 q 0.21313,0.21335 0.32308,0.59146 0.10999,0.37811 0.32308,0.91464 l 1.60855,2.04158 q -0.21314,0.21335 0,1.7186 0.10999,0.53654 0.0549,1.50547 -0.0549,0.96957 -0.0549,2.25472 0,0.53653 -0.0549,0.85972 -0.0549,0.32319 -0.0549,0.43303 -0.10998,-0.10987 -0.10998,-0.32319 0,5.90484 1.29233,6.8741 l 0.8593,0 q 1.60855,-1.93164 2.46783,-7.41031 -0.10998,-1.50547 0.21313,-4.50944 0.21314,-0.32318 0.53622,-0.74882 0.32308,-0.42669 0.8593,-0.85973 l 1.60856,-1.18238 q 0.32308,-0.64638 1.60855,-1.93163 0.43303,-0.10988 0.80427,-0.32319 0.37125,-0.21334 1.01742,-0.43303 1.07236,0.43303 1.07236,1.60855 0,1.17552 -0.10999,1.29233 5.26559,-0.64638 6.01487,-8.80584 0.10999,-0.43302 0.10999,-1.01709 0,-0.58406 0.10998,-1.45033 -0.53623,-5.58873 -3.22399,-9.02583 l -3.22397,-3.11402 q -1.18236,-0.85972 -4.08325,-0.85972 -3.54706,0 -5.80179,1.07243 -0.32308,0.10987 -3.22398,2.68775 -2.36471,2.15163 -3.43708,2.15163 -1.18235,0 -2.25472,-1.07233 -1.29235,-0.96957 -0.96925,-1.93174 l 0.96925,-2.90088 q 0.21313,0.21335 2.15161,-1.931635 1.07237,-0.433025 2.46782,-0.859725 1.39545,-0.425629 3.114,-1.072321 0.10998,0.109874 1.60855,-0.109874 0.8593,-0.213344 1.23734,-0.213344 l 3.91827,0 2.46782,0.64638 q 1.18236,0.323185 3.11399,1.395417 1.93165,1.072433 4.40635,3.114022 3.43708,4.08325 3.22397,5.58872 0.8593,1.50547 0.8593,4.50944 0,6.55112 -2.68779,10.84741 -1.29234,2.25472 -3.76016,3.4371 l -3.65018,1.71849 0.43303,8.48275 q 0.74925,2.04159 2.46782,2.04159 1.18235,0 2.19973,-0.10988 1.01741,-0.10987 1.77353,-0.64638 z m -42.53041,7.08722 q 0.32308,-0.10987 1.39545,-0.10987 2.15161,0 4.18636,1.39551 -1.07237,-0.10987 -2.04162,1.07234 0.32309,0.53654 2.6878,0.85972 0.64617,0.10988 1.23734,0.10988 l 2.73591,0 q -2.46782,1.29233 -6.76416,2.25471 2.46781,-0.43303 3.76015,-0.43303 1.39546,0 1.29235,1.29233 -2.04162,1.18239 -4.13824,1.77353 -2.09662,0.59145 -4.24136,0.8048 -0.8593,0.21334 -2.46781,0.43303 -1.60856,0.21968 -4.08326,0.32319 l -8.70268,0.21334 q -1.82852,0.10988 -4.29635,-0.21334 -2.46782,-0.32319 -5.80179,-0.85867 l -8.16649,-1.39552 q -4.83253,-0.85972 -8.32461,-1.18238 -3.49207,-0.32319 -5.95988,-0.32319 -1.82854,0 -1.82854,0.43303 0,0.10988 0.43303,0.43303 -1.60855,-0.74883 -1.93163,-3.01083 l -0.21314,-0.85972 q -0.10998,-0.53654 -0.10998,-1.23741 0,-0.7013 -0.21313,-1.56039 -3.01089,-6.76415 -3.01089,-7.08723 0,-0.64638 0.53622,-0.43303 -0.32308,-0.74883 1.39545,-0.74883 0.74925,0 1.71854,0.15843 0.96925,0.15843 2.36472,0.37811 2.6878,0.64638 3.54706,1.50535 -0.74924,-1.3954 -0.74924,-1.60854 0,-0.64637 0.10998,-0.96957 -0.21314,-0.53653 0.0549,-1.60855 0.26806,-1.07233 0.80428,-2.79082 l 1.29234,-4.83262 q 0.53622,-2.15154 0.74925,-4.35133 0.21314,-2.19969 0.10999,-4.56435 L 349.7893,94.67479 q -0.10998,-1.18238 -0.0549,-4.887544 0.0549,-3.705152 0.26806,-10.469404 l 0,-2.900882 q 0,0 0.21313,-4.406243 0.21315,-1.505468 -1.07236,-4.619484 -1.07237,-3.114017 -1.07237,-4.509431 l 1.39546,-3.114017 q 1.71854,-0.10984 4.18635,-0.969566 1.29235,-0.43303 2.25473,-0.701298 0.96238,-0.268267 1.71855,-0.37811 l 3.22397,2.254716 q 1.07237,0.213347 2.46781,2.364769 1.60856,2.254716 1.29235,3.327046 0.10998,2.790934 -3.54707,7.08723 l -3.97326,4.729432 q -1.18235,3.114016 -2.46781,12.13974 -0.53622,3.650236 -0.8593,6.661076 -0.32309,3.01092 -0.53622,5.47867 l -0.10999,-13.212079 -0.53621,10.524339 0.21313,8.05647 q 0.53622,2.90088 1.29235,10.20125 0.43302,1.82855 1.29233,3.4371 0.8593,1.60855 2.36472,2.5778 1.18235,1.39552 1.18235,2.90088 l 0,0.85972 q -1.07237,1.07244 -1.07237,1.60855 0,0.74882 2.3647,0.85972 1.18237,0.21336 1.18237,0 l -0.21314,-0.21334 q 3.76017,1.50547 7.52033,2.09661 3.76016,0.59145 7.19723,0.91464 l 1.07238,0.10987 q -0.10998,-0.10987 2.25473,-0.10987 1.60855,0 1.60855,0.64638 0,0.21334 -0.32309,0.64638 -0.32308,0.43302 -0.10998,0.43302 0.43303,0 1.07238,-0.59145 0.63929,-0.59146 0.8593,-0.59146 l 5.15561,0.53654 q 1.60856,0.21335 2.9009,0.32319 1.29234,0.10987 2.46781,0.32318 z m 8.59269,0.96957 q 2.3647,0 2.3647,0.32318 0,0.21336 -2.68778,0.64638 -2.46782,0.3232 -3.22398,0.3232 -1.07237,0 0.21313,-0.53654 1.07237,-0.32319 1.07237,-0.53654 0,-0.21335 2.25471,-0.21335 z m -2.3647,1.7186 q 0,-0.53653 6.44795,-0.53653 3.22398,0 3.22398,0.53653 0,0.21334 -3.76016,0.21334 -5.90491,0 -5.90491,-0.21334 z m 2.1516,2.04158 q -0.21314,-0.32319 2.5778,-0.32319 2.6878,0 2.6878,0.53654 -0.21313,0 -1.07235,0.21334 -0.8593,0.21334 -2.57782,0.53654 -1.18236,0.21334 -1.29234,-0.10987 z m -41.14183,-8.05647 q 0,0.53652 2.36472,0.96956 l 2.90089,0.53653 q 0.21315,0 0.53622,0.37811 0.32308,0.37811 0.74925,0.37811 0.53623,0 1.29233,0.10987 0.75622,0.10988 1.29235,0.10988 -0.21314,0 0.0549,0.0528 0.26806,0.0528 1.12737,0.0528 l 3.11399,0 q 0,0 2.46782,0.21334 0.53622,0.10988 1.01742,0.10988 l 1.45045,0 q 0,-0.21335 -1.45045,-0.26826 -1.45044,-0.0529 -4.24135,-0.48162 -1.50544,-0.21335 -2.41971,-0.32319 -0.91421,-0.10988 -1.45045,-0.10988 -0.53622,0 -1.60855,-0.43302 -1.07236,-0.43304 -1.60855,-0.3232 -0.74925,0 -1.66354,-0.15841 -0.91423,-0.15843 -2.09662,-0.37811 -0.8593,-0.10988 -1.39545,-0.3232 -0.32309,-0.10987 -0.43304,-0.10987 z m 10.20813,3.86326 q 0,0.85973 2.15161,1.07232 l 4.94252,-0.21334 q 0.8593,0 1.93164,0.15843 1.07237,0.15843 2.57781,0.37811 3.01089,0.64638 4.40632,0.64638 0.53622,0 1.60857,-0.37811 1.07236,-0.37811 1.60854,-0.37811 l 3.70518,-0.15843 q 0,0 1.34045,-0.0528 0,0.10987 -2.46781,0.10987 -2.46782,0 -7.62344,-0.53654 l -5.69181,-0.64637 q -1.50544,-0.21335 -2.30972,-0.37811 -0.80428,-0.16476 -1.12735,-0.15843 -5.04563,0 -5.04563,0.53654 z m -35.34004,-14.6076 0.74925,0.74883 q 0.32308,0.32318 -1.29234,2.15164 -0.74924,0.85971 -1.23735,1.50545 -0.48805,0.64638 -0.91422,1.07234 -1.29234,1.29233 -2.68778,2.36477 -1.71855,0.64638 -4.08326,0.32319 -0.8593,-0.10987 -2.57781,-1.29245 -0.32309,-0.21334 -0.64617,-0.3781 -0.32307,-0.16476 -0.53622,-0.37811 l -0.43302,-0.32319 q -1.07237,0 -2.57782,4.72944 -0.96925,3.01092 -1.29234,3.32715 -1.07236,1.07233 -3.97327,1.39541 -2.90088,0.21335 -4.94251,-2.46786 -1.39545,-1.71849 -2.52281,-3.54704 -1.12736,-1.82855 -1.77354,-4.08327 -0.21313,-0.43302 -0.43302,-1.18227 -0.22001,-0.74883 -0.43304,-1.82856 -0.53621,-1.82855 -1.0174,-3.76018 -0.48119,-1.93162 -1.87666,-2.90088 l -1.50543,-0.85972 -0.10999,-0.43304 1.29235,-0.96956 q 0.21313,-0.21334 0.74925,-0.53653 0.53622,-0.32319 1.39546,-0.85972 l 1.93162,0 q 0.96926,0 2.36473,0.43302 1.39544,0.43304 3.01088,1.18239 1.71853,1.50536 2.25472,2.5778 0,0.10987 0.0549,0.80375 0.0549,0.6939 0.1581,2.19968 0.10999,0.85972 0.15812,1.60855 0.0485,0.74883 0.0549,1.50547 0,0.32319 0.10999,0.85972 0.10998,0.53654 0.43302,1.29234 0.10999,0.53653 0.32309,1.01709 0.21313,0.48162 0.53621,1.12736 1.29235,1.3954 2.04163,1.3954 1.07237,0 1.71854,-0.96956 l 0.64616,-1.39541 0,-1.3405 q 0,0 0.21314,-3.05898 0,-1.29233 0.10998,-1.39541 -0.21313,-1.18239 -0.43303,-2.57781 -0.22,-1.39551 -0.21314,-2.90088 0.53622,-0.85973 1.93165,-1.50546 1.39546,-0.64638 1.60855,-0.96957 0.32308,-0.43303 0.74925,-0.91464 0.42616,-0.48162 0.96925,-1.0171 0.32308,-0.10987 0.80427,-0.32318 0.48119,-0.21336 1.01741,-0.43304 2.46782,1.29234 2.46782,2.15164 0,1.71849 -1.82852,5.04565 l 0.43303,7.52026 q 0.10999,1.60855 1.18235,1.60855 2.15162,0 3.97325,-1.29234 0.43304,-0.32318 0.85931,-0.80375 0.42616,-0.48161 1.07237,-1.12736 z m -68.09539,-37.051665 -3.22398,0.43303 -2.57781,-0.43303 2.25473,-2.364768 q 0.8593,-0.323189 2.30971,-1.017094 1.45045,-0.693906 3.59518,-1.773525 0.64617,-0.323187 1.71855,-0.804802 1.07236,-0.481614 2.7909,-1.340387 l 3.87015,-2.041686 2.15161,-0.859724 2.15162,-0.213346 q 0.43302,0 1.71853,0.536534 l 2.15162,1.828551 0,2.900881 0.74924,0.748825 2.6878,-0.43303 2.25472,-0.969565 3.32709,-1.072332 q 1.82852,-1.182383 3.114,-1.182383 l 4.61944,-1.505468 q 0,0.969566 -1.93164,2.364768 -0.53623,0.433031 -1.34047,0.859725 -0.80428,0.425636 -1.66354,1.292331 -1.29235,1.072332 -2.6878,1.876606 -1.39545,0.804804 -2.9009,1.340494 l -4.61943,1.505467 q -0.64617,0 -2.25473,0.43303 l -2.46781,0.646377 -0.8593,-0.43303 -0.64617,-0.43303 -0.43303,-0.969566 -0.74925,-1.39552 -0.64616,-1.505362 q -0.8593,-1.182384 -1.71854,-1.182384 l -1.93164,1.182384 -1.71855,1.072332 z m 29.42826,44.035815 q 0.43303,-0.64638 1.56044,-1.45044 1.12736,-0.80375 1.34046,-0.80375 0.10998,0.10987 0.64615,0.10987 0.53622,0 0.53622,0.21334 0,0.10988 -0.10998,0.21335 l -4.50945,4.18635 q -0.21313,0.21334 -1.01741,0.74882 -0.80427,0.53654 -2.30972,1.39552 -1.82852,0.96957 -5.04563,0.85973 -1.60855,0 -3.11399,-1.07244 -1.29235,-0.96956 -1.82852,-1.18238 -1.29235,0 -2.57781,4.72942 -0.74925,3.01094 -1.29234,3.32715 -0.96925,1.18239 -3.87015,1.29234 -3.01088,0.21335 -5.04563,-2.46785 -2.79092,-3.4371 -4.18637,-7.52026 -0.8593,-2.46785 -1.29234,-6.0149 -0.21313,-2.04169 -0.43302,-3.49212 -0.22,-1.45044 -0.43304,-2.41969 -1.29233,-6.01491 -2.68779,-8.48276 -0.21314,-0.43302 -1.29234,-1.29232 l -0.10999,-0.3232 0.21314,-0.43302 q 0.21314,-0.3232 1.34047,-0.37811 1.12735,-0.0528 1.45043,-0.15843 0.74925,-2.04158 2.15161,-2.04158 0.10999,0 0.80428,0.26826 0.69433,0.26827 1.87665,0.70131 l 3.65018,1.18238 q 0.43303,0.21335 1.60855,3.22396 l 1.93163,3.32705 q 0.21314,0.85973 0.37811,1.66358 0.16498,0.8048 0.15811,1.77352 l 0,3.76019 -0.10999,3.54704 q -0.10999,5.80176 1.29234,6.87421 l 0.8593,0 q 1.60856,-1.93164 2.46784,-7.41042 -0.10999,-1.50537 0.21313,-4.50944 0.21313,-0.32318 0.53621,-0.74882 0.32309,-0.42669 0.8593,-0.85973 l 1.60855,-1.18227 q 0.32309,-0.64638 1.60856,-1.93163 0.43304,-0.10988 0.80428,-0.3232 0.37125,-0.21334 1.01742,-0.43302 1.07236,0.43302 1.07236,1.60854 0,1.17542 -0.10998,1.29233 5.2656,-0.64637 6.01488,-8.80583 0.10998,-0.43303 0.10998,-1.01709 0,-0.58406 0.10999,-1.45044 -0.53622,-5.58873 -3.22397,-9.02573 l -3.22398,-3.11402 q -1.18236,-0.85972 -4.08325,-0.85972 -3.54706,0 -5.80178,1.07233 -0.32308,0.10987 -3.22399,2.68785 -2.3647,2.15153 -3.43708,2.15153 -1.18235,0 -2.25472,-1.07234 -1.29234,-0.96956 -0.96924,-1.93162 l 0.96924,-2.90088 q 0.21314,0.21334 2.15162,-1.931636 1.07236,-0.433036 2.46781,-0.859725 1.39546,-0.42564 3.114,-1.072433 0.10998,0.109874 1.60855,-0.109873 0.85931,-0.213345 1.23735,-0.213345 l 3.91827,0 2.46782,0.64638 q 1.18235,0.323185 3.11399,1.395517 1.93164,1.072333 4.40633,3.114015 3.43708,4.08316 3.22398,5.58863 0.85931,1.50547 0.85931,4.50943 0,11.06055 -6.44797,14.28452 l -3.54706,1.7186 0.32308,8.48264 q 0.74925,2.04168 2.46782,2.04168 1.18235,0 2.19974,-0.10987 1.0174,-0.10987 1.77352,-0.64638 z M 238.72357,73.941082 q -1.07236,5.155703 -1.60855,18.154648 -0.10999,0.32318 -0.32309,-0.701307 -0.21313,-1.024479 -0.43302,-3.492017 -0.64617,-5.04565 -0.74925,-5.04565 -0.10998,0.10984 -0.0549,0.268267 0.0549,0.158427 -0.0549,0.481615 0,0.646377 -0.0549,2.151633 -0.0549,1.505463 0.26806,3.870132 0,0.859725 0.1581,1.773527 0.15812,0.91464 0.37811,2.0966 0.32309,1.39552 0.53622,2.36477 0.21314,0.96956 0.32308,1.50547 0.32309,3.22397 0.32309,11.28044 0.43303,0 3.70518,0.26826 3.27209,0.26827 9.39697,0.80375 l 13.53521,1.29234 q 0.43303,0 -0.74925,0.0528 -1.18237,0.0528 -3.87015,0.0528 -6.01488,0.21335 -5.4787,0.53654 l 5.4787,1.50547 q 0.10998,0.43303 -4.50945,0.85973 -2.79091,0.21334 -4.08325,0.37809 -1.29234,0.16477 -1.50544,0.15843 -1.18235,0.64638 1.60856,0.64638 l 2.04162,0 q 0,0 1.93163,-0.10987 1.93164,0.10987 1.39546,0.32319 -0.96925,0.21334 -2.46783,0.21334 -1.49856,0 -3.65017,-0.10987 -4.83252,-0.21335 -6.01489,0.10987 -0.53622,0.10987 2.79092,0.74882 l 3.54706,0.74883 -11.1705,-0.10987 q -0.21314,0.21335 -1.07238,0 -0.64616,-0.32319 -0.8593,-0.10988 l 0.21314,3.65014 q 0.10999,1.18238 0.26805,3.05899 0.15812,1.8767 0.37811,4.35143 0.10998,0.64636 0.10998,1.98654 0,1.34049 0.21314,3.16905 0.21313,2.04158 0.21313,3.05899 l 0,1.2373 q -0.10999,1.39553 -0.26805,2.79094 -0.15812,1.39541 -0.59114,3.01093 0,0.21334 -1.82853,0.74882 -0.53622,0.10988 -0.91423,0.15843 -0.37811,0.0528 -0.59113,0.0528 -0.53623,0 -0.53623,-0.21335 -0.21313,0 -1.29233,0.48162 -1.07924,0.48161 -1.50544,0.26827 -2.79091,-1.18239 -2.79091,-2.36477 -0.10998,0 -0.10998,-0.43304 0,-0.53653 0.53621,-1.66357 0.53622,-1.12736 0.53622,-1.66347 0.43303,-2.79093 -0.64616,-4.50943 l -1.82914,-2.90078 q -1.18235,-1.7185 -3.54707,-3.54705 -2.15161,-1.60855 -4.67443,-3.32704 -2.52281,-1.71861 -6.28297,-2.36477 l -3.3271,-0.53654 q 0,2.79094 -0.32307,8.26961 -0.32309,5.69182 -0.32309,8.26962 0,0.10988 -0.10998,1.93163 -0.10999,1.82169 -0.64617,5.36874 l -0.96924,7.62344 q -0.10998,0.21335 -0.74925,-9.88503 0,7.84346 -0.53623,7.84346 l -0.96924,-4.18646 q -0.64617,0.10987 -1.23735,0.26827 -0.59113,0.15843 -1.01741,0.48161 l -0.8593,0.43304 q -1.60855,0 -1.60855,-6.55102 l 0,-6.55111 q -0.21313,-0.64638 -0.0549,-2.09661 0.15812,-1.45045 0.37811,-3.8151 l 0,-6.44804 q 0,0 0.21314,-1.71849 -1.39546,0 -5.36872,0.64637 -2.15161,0.32319 -3.32709,0.32319 -4.08325,0.53653 -4.08325,-2.68775 0,-2.25482 3.32709,-8.16653 0,-0.21335 0.0549,-0.37811 0.0549,-0.16477 0.0549,-0.26827 0,-0.74883 -1.18235,-3.22396 -0.53621,-1.18238 -0.8593,-2.09661 -0.32308,-0.91464 -0.32308,-1.66358 0,-1.18238 0.64617,-2.15163 4.29634,0.64638 11.70669,4.08327 0,-0.43304 0.10998,-1.50547 0.10999,-1.07233 0.32309,-3.11402 0.10998,-1.07233 0.1581,-2.41968 0.0485,-1.34736 0.0549,-3.16894 0,-4.406348 -0.32308,-13.102131 l -0.43304,-9.885028 -2.15161,-4.083266 q -0.32309,-0.536535 -0.43303,-1.072437 l -0.21313,-1.072332 q -0.10998,-1.068317 1.39545,-1.068317 l 0.64617,0 q 4.18636,0 8.70269,2.04158 1.93163,0.748825 3.43708,2.254716 2.3647,2.364768 2.04162,3.327152 l -1.50545,3.650129 q -0.96925,1.292332 -2.1516,4.186349 l -1.18237,15.253765 q -0.64616,9.23886 0.10999,10.95746 0.8593,0 2.52281,0.10987 1.66354,0.10987 4.13824,0.43304 0.32308,0.10987 0.91422,0.21334 0.59114,0.10564 1.45045,0.43304 1.60856,0.32318 2.46782,0.32318 0.74925,-0.10987 3.114,0.32318 2.25473,0.53654 3.11398,0.3232 1.07238,-0.21334 2.25473,0.10987 1.39545,0.21335 1.71854,-0.10987 l 0.8593,-5.69182 q 0.21313,-7.30723 0,-15.680028 -0.10999,-2.790828 -0.26806,-5.10057 -0.15811,-2.309742 -0.48119,-4.241374 l -1.93164,-10.95736 q 0,0.213346 -0.32309,0.213346 -1.07235,0 -1.82852,-1.931633 -0.85931,-1.505466 -0.85931,-2.790934 0,-0.646376 0.43304,-1.395519 2.15161,-2.467746 3.01088,-2.790829 l 4.18637,-1.292332 q 0.53622,-0.213346 1.66354,-0.323187 1.12736,-0.109841 3.16898,-0.323189 3.97326,-0.323189 4.50946,0 1.50543,0.646376 2.7909,3.547046 0.74924,2.041581 0.10998,4.296297 0,0.748826 -2.04163,3.223964 z m -8.70267,43.822788 q 0,-0.43304 -2.46784,-0.43304 -1.18235,-0.10987 -1.77353,-0.10987 l -0.70119,0 q -0.64617,0.10987 -1.23734,0.10987 l -1.12736,0 -6.55108,1.07233 6.44796,3.97332 q 0.64616,0 1.77353,0.91465 1.12736,0.91464 2.63281,2.9559 2.68778,3.43711 3.43706,5.47869 -0.10998,-0.21334 -0.10998,-1.60855 -0.21314,-1.82855 0.10998,-1.93163 0.21314,0 -0.10998,-2.04169 l -0.32308,-2.04158 0.43302,-6.01489 z"/><path fill="#4285F4" d="m 70.454362,139.9647 19.48224,0 0,-19.48225 19.482228,0 0,35.28322 -29.220405,16.81246 q -2.205205,1.28789 -4.686796,2.02299 -2.481582,0.73509 -5.051383,0.73509 -8.085741,0 -13.872202,-5.78644 -5.786451,-5.60427 -5.786451,-13.784 l 0,-90.048781 q 0,-8.085734 5.786451,-13.872183 5.786461,-5.786447 13.872202,-5.786447 l 0,93.906341 z"/><path fill="#EA4335" d="M 158.29202,93.83767 q 4.41041,2.57569 7.07428,7.07435 2.6639,4.49854 2.6639,9.83221 0,5.33366 -2.6639,9.83232 -2.66387,4.49856 -7.07428,7.07424 l -29.40271,16.90657 0,-48.5144 -19.48223,0 0,4.96316 -19.482238,0 0,-46.679733 z"/></symbol><symbol id="search" viewBox="0 0 10 10"><circle fill="none" stroke="#000" stroke-miterlimit="10" cx="3.5" cy="3.5" r="3"/><path fill="none" stroke="#000" stroke-miterlimit="10" d="M9.5 9.5L5.7 5.7"/></symbol><symbol id="twitter" viewBox="0 0 100 100"><path d="M50 0C22.386 0 0 22.386 0 50s22.386 50 50 50 50-22.386 50-50S77.614 0 50 0zm24.852 37.254c.024.55.037 1.103.037 1.66 0 16.944-12.898 36.482-36.484 36.482-7.24 0-13.98-2.123-19.656-5.76 1.003.118 2.024.18 3.06.18 6.006 0 11.536-2.05 15.924-5.49-5.61-.103-10.347-3.81-11.98-8.905.784.15 1.587.23 2.414.23 1.17 0 2.303-.156 3.378-.45-5.866-1.178-10.286-6.36-10.286-12.573v-.16c1.73.96 3.707 1.536 5.81 1.603-3.442-2.3-5.706-6.225-5.706-10.673 0-2.35.632-4.553 1.736-6.446 6.324 7.76 15.772 12.863 26.43 13.398-.22-.94-.333-1.917-.333-2.922 0-7.08 5.742-12.822 12.823-12.822 3.688 0 7.02 1.557 9.36 4.05 2.92-.576 5.664-1.643 8.142-3.112-.957 2.994-2.99 5.507-5.638 7.094 2.594-.31 5.065-1 7.364-2.02-1.717 2.572-3.89 4.83-6.396 6.638z"/></symbol></svg>